<svg xmlns="http://www.w3.org/2000/svg" xmlns:xlink="http://www.w3.org/1999/xlink" width="500" zoomAndPan="magnify" viewBox="0 0 375 374.999991" height="500" preserveAspectRatio="xMidYMid meet" version="1.0"><defs><clipPath id="c446346ca6"><path d="M 1.640625 135 L 373.640625 135 L 373.640625 375 L 1.640625 375 Z M 1.640625 135 " clip-rule="nonzero"/></clipPath></defs><path fill="#57bbdd" d="M 64.554688 189.992188 C 65.039062 189.953125 114.046875 185.480469 153.480469 202.308594 C 154.085938 202.566406 154.703125 202.6875 155.320312 202.6875 C 157.136719 202.6875 158.863281 201.625 159.617188 199.847656 C 160.636719 197.472656 159.53125 194.730469 157.160156 193.722656 C 115.449219 175.933594 65.746094 180.484375 63.65625 180.695312 C 61.085938 180.9375 59.207031 183.226562 59.457031 185.792969 C 59.703125 188.363281 62.054688 190.242188 64.554688 189.992188 " fill-opacity="1" fill-rule="nonzero"/><path fill="#57bbdd" d="M 64.554688 222.785156 C 65.039062 222.742188 114.046875 218.277344 153.480469 235.105469 C 154.085938 235.363281 154.703125 235.480469 155.320312 235.480469 C 157.136719 235.480469 158.863281 234.417969 159.617188 232.640625 C 160.636719 230.269531 159.53125 227.523438 157.160156 226.515625 C 115.449219 208.730469 65.746094 213.28125 63.65625 213.492188 C 61.085938 213.734375 59.207031 216.023438 59.457031 218.589844 C 59.703125 221.15625 62.054688 223.042969 64.554688 222.785156 " fill-opacity="1" fill-rule="nonzero"/><path fill="#57bbdd" d="M 64.554688 255.582031 C 65.039062 255.542969 114.046875 251.078125 153.480469 267.898438 C 154.085938 268.15625 154.703125 268.277344 155.320312 268.277344 C 157.136719 268.277344 158.863281 267.214844 159.617188 265.4375 C 160.636719 263.0625 159.53125 260.320312 157.160156 259.308594 C 115.449219 241.515625 65.746094 246.070312 63.65625 246.285156 C 61.085938 246.527344 59.207031 248.816406 59.457031 251.382812 C 59.703125 253.953125 62.054688 255.839844 64.554688 255.582031 " fill-opacity="1" fill-rule="nonzero"/><path fill="#57bbdd" d="M 153.488281 300.695312 C 154.085938 300.949219 154.703125 301.070312 155.320312 301.070312 C 157.136719 301.070312 158.863281 300.003906 159.617188 298.230469 C 160.636719 295.859375 159.53125 293.113281 157.152344 292.105469 C 115.457031 274.316406 65.746094 278.867188 63.65625 279.089844 C 61.085938 279.332031 59.207031 281.617188 59.457031 284.183594 C 59.703125 286.75 62.054688 288.628906 64.554688 288.378906 C 65.042969 288.347656 113.953125 283.835938 153.488281 300.695312 " fill-opacity="1" fill-rule="nonzero"/><g clip-path="url(#c446346ca6)"><path fill="#57bbdd" d="M 364.175781 362.882812 C 298.976562 335.683594 222.578125 362.082031 213.289062 365.5 L 196.324219 365.5 C 207.605469 352.148438 244.347656 323.625 346.6875 336.921875 C 348.011719 337.078125 349.355469 336.683594 350.375 335.792969 C 351.382812 334.90625 351.960938 333.628906 351.960938 332.285156 L 351.960938 159.238281 L 364.175781 177.550781 Z M 11.105469 362.882812 L 11.105469 177.550781 L 23.3125 159.242188 L 23.3125 332.285156 C 23.3125 333.628906 23.890625 334.90625 24.902344 335.792969 C 25.910156 336.683594 27.242188 337.078125 28.589844 336.921875 C 130.960938 323.585938 167.703125 352.167969 178.964844 365.5 L 161.988281 365.5 C 152.691406 362.09375 76.320312 335.679688 11.105469 362.882812 Z M 32.664062 147.925781 C 151.671875 133.464844 179.632812 176.574219 182.964844 182.699219 L 182.964844 355.789062 C 170.199219 342.6875 141.074219 324.089844 78.527344 324.089844 C 64.898438 324.089844 49.648438 324.976562 32.664062 326.996094 Z M 342.613281 147.925781 L 342.613281 326.992188 C 247.722656 315.734375 207.859375 339.828125 192.316406 355.789062 L 192.316406 182.699219 C 195.640625 176.574219 223.523438 133.492188 342.613281 147.925781 Z M 372.742188 173.550781 L 351.179688 141.210938 L 351.175781 141.210938 C 350.449219 140.121094 349.273438 139.347656 347.890625 139.167969 C 237.289062 124.832031 199.113281 157.542969 187.640625 172.71875 C 176.175781 157.546875 138.007812 124.84375 27.382812 139.167969 C 26 139.347656 24.828125 140.121094 24.097656 141.210938 L 2.539062 173.550781 C 2.027344 174.316406 1.753906 175.21875 1.753906 176.140625 L 1.753906 370.097656 C 1.753906 371.703125 2.582031 373.199219 3.941406 374.050781 C 5.316406 374.914062 7.027344 375 8.457031 374.304688 C 74.128906 342.703125 158.632812 374.210938 159.472656 374.539062 C 160.007812 374.742188 160.574219 374.84375 161.140625 374.84375 L 214.136719 374.84375 C 214.699219 374.84375 215.265625 374.742188 215.804688 374.539062 C 216.636719 374.203125 301.148438 342.6875 366.824219 374.304688 C 368.253906 375 369.964844 374.914062 371.339844 374.050781 C 372.695312 373.199219 373.527344 371.703125 373.527344 370.097656 L 373.527344 176.140625 C 373.527344 175.21875 373.253906 174.316406 372.742188 173.550781 " fill-opacity="1" fill-rule="nonzero"/></g><path fill="#57bbdd" d="M 219.953125 202.6875 C 220.570312 202.6875 221.191406 202.566406 221.785156 202.308594 C 261.257812 185.488281 310.242188 189.96875 310.726562 189.992188 C 313.253906 190.21875 315.582031 188.363281 315.824219 185.792969 C 316.074219 183.226562 314.195312 180.9375 311.625 180.695312 C 309.53125 180.496094 259.8125 175.945312 218.121094 193.722656 C 215.742188 194.730469 214.640625 197.472656 215.65625 199.847656 C 216.414062 201.625 218.140625 202.6875 219.953125 202.6875 " fill-opacity="1" fill-rule="nonzero"/><path fill="#57bbdd" d="M 219.953125 235.480469 C 220.570312 235.480469 221.191406 235.363281 221.785156 235.105469 C 261.257812 218.292969 310.242188 222.75 310.726562 222.785156 C 313.253906 223.019531 315.582031 221.15625 315.824219 218.589844 C 316.074219 216.023438 314.195312 213.734375 311.625 213.492188 C 309.53125 213.289062 259.8125 208.730469 218.121094 226.515625 C 215.742188 227.523438 214.640625 230.269531 215.65625 232.640625 C 216.414062 234.417969 218.140625 235.480469 219.953125 235.480469 " fill-opacity="1" fill-rule="nonzero"/><path fill="#57bbdd" d="M 219.953125 268.277344 C 220.570312 268.277344 221.191406 268.15625 221.785156 267.898438 C 261.257812 251.078125 310.242188 255.558594 310.726562 255.582031 C 313.253906 255.8125 315.582031 253.953125 315.824219 251.382812 C 316.074219 248.816406 314.195312 246.527344 311.625 246.285156 C 309.53125 246.078125 259.8125 241.519531 218.121094 259.308594 C 215.742188 260.320312 214.640625 263.0625 215.65625 265.4375 C 216.414062 267.214844 218.140625 268.277344 219.953125 268.277344 " fill-opacity="1" fill-rule="nonzero"/><path fill="#57bbdd" d="M 219.953125 301.070312 C 220.570312 301.070312 221.191406 300.949219 221.785156 300.695312 C 261.230469 283.875 310.238281 288.347656 310.726562 288.378906 C 313.253906 288.605469 315.582031 286.75 315.824219 284.183594 C 316.074219 281.617188 314.195312 279.332031 311.625 279.089844 C 309.511719 278.871094 259.8125 274.316406 218.121094 292.105469 C 215.742188 293.113281 214.640625 295.859375 215.65625 298.230469 C 216.414062 300.003906 218.140625 301.070312 219.953125 301.070312 " fill-opacity="1" fill-rule="nonzero"/><path fill="#57bbdd" d="M 187.640625 27.480469 C 190.222656 27.480469 192.316406 25.382812 192.316406 22.804688 L 192.316406 4.65625 C 192.316406 2.078125 190.222656 -0.0195312 187.640625 -0.0195312 C 185.058594 -0.0195312 182.964844 2.078125 182.964844 4.65625 L 182.964844 22.804688 C 182.964844 25.382812 185.058594 27.480469 187.640625 27.480469 " fill-opacity="1" fill-rule="nonzero"/><path fill="#57bbdd" d="M 232.851562 74.441406 C 232.851562 77.019531 234.941406 79.113281 237.523438 79.113281 L 255.691406 79.105469 C 258.273438 79.105469 260.367188 77.011719 260.367188 74.433594 C 260.367188 71.855469 258.273438 69.765625 255.691406 69.765625 L 237.523438 69.769531 C 234.941406 69.769531 232.851562 71.863281 232.851562 74.441406 " fill-opacity="1" fill-rule="nonzero"/><path fill="#57bbdd" d="M 223.285156 42.972656 C 224.484375 42.972656 225.675781 42.515625 226.589844 41.605469 L 239.4375 28.765625 C 241.261719 26.941406 241.261719 23.988281 239.4375 22.160156 C 237.609375 20.335938 234.652344 20.335938 232.824219 22.160156 L 219.976562 34.996094 C 218.152344 36.820312 218.152344 39.78125 219.976562 41.605469 C 220.890625 42.515625 222.085938 42.972656 223.285156 42.972656 " fill-opacity="1" fill-rule="nonzero"/><path fill="#57bbdd" d="M 119.589844 79.105469 L 137.75 79.113281 C 140.332031 79.113281 142.429688 77.019531 142.429688 74.441406 C 142.429688 71.863281 140.332031 69.769531 137.75 69.769531 L 119.589844 69.765625 C 117.007812 69.765625 114.914062 71.855469 114.914062 74.433594 C 114.914062 77.011719 117.007812 79.105469 119.589844 79.105469 " fill-opacity="1" fill-rule="nonzero"/><path fill="#57bbdd" d="M 148.683594 41.605469 C 149.597656 42.515625 150.789062 42.972656 151.988281 42.972656 C 153.183594 42.972656 154.382812 42.515625 155.296875 41.605469 C 157.121094 39.78125 157.121094 36.820312 155.296875 34.996094 L 142.457031 22.160156 C 140.636719 20.34375 137.679688 20.328125 135.847656 22.160156 C 134.019531 23.988281 134.019531 26.941406 135.847656 28.765625 L 148.683594 41.605469 " fill-opacity="1" fill-rule="nonzero"/><path fill="#57bbdd" d="M 187.5 42.808594 C 203.195312 42.808594 215.96875 55.570312 215.96875 71.253906 C 215.96875 80.578125 211.371094 89.328125 203.675781 94.644531 C 202.417969 95.519531 201.660156 96.957031 201.660156 98.488281 L 201.660156 109.328125 L 173.339844 109.328125 L 173.339844 98.488281 C 173.339844 96.957031 172.585938 95.519531 171.328125 94.644531 C 163.632812 89.328125 159.03125 80.578125 159.03125 71.253906 C 159.03125 55.570312 171.804688 42.808594 187.5 42.808594 Z M 163.988281 100.835938 L 163.988281 114 C 163.988281 116.578125 166.082031 118.671875 168.664062 118.671875 L 206.335938 118.671875 C 208.917969 118.671875 211.011719 116.578125 211.011719 114 L 211.011719 100.835938 C 220.015625 93.6875 225.320312 82.808594 225.320312 71.253906 C 225.320312 50.417969 208.351562 33.464844 187.5 33.464844 C 166.648438 33.464844 149.683594 50.417969 149.683594 71.253906 C 149.683594 82.808594 154.984375 93.6875 163.988281 100.835938 " fill-opacity="1" fill-rule="nonzero"/><path fill="#57bbdd" d="M 206.335938 128.234375 L 168.664062 128.234375 C 166.082031 128.234375 163.988281 130.328125 163.988281 132.90625 C 163.988281 135.488281 166.082031 137.578125 168.664062 137.578125 L 206.335938 137.578125 C 208.917969 137.578125 211.011719 135.488281 211.011719 132.90625 C 211.011719 130.328125 208.917969 128.234375 206.335938 128.234375 " fill-opacity="1" fill-rule="nonzero"/></svg>